<svg width="129" height="307" viewBox="0 0 129 307" fill="none" xmlns="http://www.w3.org/2000/svg">
<mask id="mask0_185_18" style="mask-type:luminance" maskUnits="userSpaceOnUse" x="0" y="0" width="129" height="307">
<path d="M0 0H128.953V306.885H0V0Z" fill="white"/>
</mask>
<g mask="url(#mask0_185_18)">
<path d="M9.81771 240.375C9.81771 238.104 12.8646 235.568 17.2448 235.568C19.9583 235.568 22.1563 233.38 22.1563 230.677C22.1563 227.974 19.9583 225.786 17.2448 225.786C12.8646 225.786 9.81771 223.255 9.81771 220.984V204.542C9.81771 202.266 12.8646 199.734 17.2448 199.734C19.9583 199.734 22.1563 197.547 22.1563 194.844C22.1563 192.141 19.9583 189.953 17.2448 189.953C12.8646 189.953 9.81771 187.422 9.81771 185.151V168.703C9.81771 166.432 12.8646 163.901 17.2448 163.901C19.9583 163.901 22.1563 161.714 22.1563 159.01C22.1563 156.307 19.9583 154.12 17.2448 154.12C12.8646 154.12 9.81771 151.589 9.81771 149.313V98.0052C10.7604 95.474 17.0312 85.8333 27.026 73.2917C38.349 59.0781 45.3698 52.4844 47.6146 51.2813H81.3333C83.5781 52.4844 90.599 59.0781 101.927 73.2917C111.917 85.8333 118.193 95.474 119.135 98.0052V149.313C119.135 151.589 116.078 154.12 111.703 154.12C108.99 154.12 106.792 156.307 106.792 159.01C106.792 161.714 108.99 163.901 111.703 163.901C116.078 163.901 119.135 166.432 119.135 168.703V185.151C119.135 187.422 116.078 189.953 111.703 189.953C108.99 189.953 106.792 192.141 106.792 194.844C106.792 197.547 108.99 199.734 111.703 199.734C116.078 199.734 119.135 202.266 119.135 204.542V220.984C119.135 223.255 116.078 225.786 111.703 225.786C108.99 225.786 106.792 227.974 106.792 230.677C106.792 233.38 108.99 235.568 111.703 235.568C116.078 235.568 119.135 238.104 119.135 240.375V292.141C119.135 294.411 116.078 296.948 111.703 296.948H17.2448C12.8646 296.948 9.81771 294.411 9.81771 292.141V240.375ZM36.1979 14.7448C36.1979 12.474 39.2448 9.9375 43.625 9.9375H85.3229C89.7031 9.9375 92.7552 12.474 92.7552 14.7448V36.6927C92.7552 38.9688 89.7031 41.5 85.3229 41.5H43.625C39.2448 41.5 36.1979 38.9688 36.1979 36.6927V14.7448ZM5.48438 302.839C8.67708 305.349 12.8542 306.729 17.2448 306.729H111.703C116.094 306.729 120.276 305.349 123.469 302.839C126.953 300.099 128.948 296.198 128.948 292.141V240.375C128.948 236.786 127.391 233.323 124.62 230.677C127.391 228.031 128.948 224.568 128.948 220.984V204.542C128.948 200.953 127.391 197.49 124.62 194.844C127.391 192.198 128.948 188.734 128.948 185.151V168.703C128.948 165.12 127.391 161.656 124.62 159.01C127.391 156.365 128.948 152.901 128.948 149.313V97.5469C128.948 95.8073 128.453 93.3698 122.484 84.5625C118.969 79.3646 114.313 73.099 109.375 66.9167C105.667 62.2708 100.146 55.6094 94.8958 50.224C94.5885 49.9063 94.2969 49.6094 94 49.3177C95.1042 48.7813 96.1406 48.1354 97.0885 47.3906C100.573 44.651 102.573 40.7552 102.573 36.6927V14.7448C102.573 10.6875 100.573 6.78646 97.0885 4.04688C93.8958 1.53646 89.7188 0.15625 85.3229 0.15625H43.625C39.2344 0.15625 35.0521 1.53646 31.8646 4.04688C28.3802 6.78646 26.3802 10.6875 26.3802 14.7448V36.6927C26.3802 40.7552 28.3802 44.651 31.8646 47.3906C32.8073 48.1354 33.8438 48.776 34.9479 49.3177C34.6563 49.6094 34.3594 49.9063 34.0521 50.224C28.8021 55.6094 23.2813 62.2708 19.5729 66.9167C14.6354 73.099 9.97917 79.3646 6.46354 84.5625C0.500001 93.3698 0 95.8073 0 97.5469V149.313C0 152.901 1.5625 156.365 4.32813 159.01C1.5625 161.656 0 165.12 0 168.703V185.151C0 188.734 1.5625 192.198 4.32813 194.844C1.5625 197.49 0 200.953 0 204.542V220.984C0 224.568 1.5625 228.031 4.32813 230.677C1.5625 233.323 0 236.786 0 240.375V292.141C0 296.198 1.99479 300.099 5.48438 302.839Z" fill="black"/>
</g>
</svg>
