<svg width="276" height="185" viewBox="0 0 276 185" fill="none" xmlns="http://www.w3.org/2000/svg">
<path d="M144.933 138.757H129.714L128.763 104.51C126.861 94.3662 116.398 72.9023 97.3696 62.6591C85.0045 56.0009 56.4696 52.3844 41.251 56.9521C44.1045 52.8286 55.5184 43.6358 77.3951 45.5381C90.3717 46.6618 100.542 50.6075 104.028 52.1963C111.956 55.3633 129.521 65.894 136.372 82.6335C141.128 75.0242 156.347 61.7079 173.468 57.9032C189.962 54.2345 202.008 58.8544 205.813 60.7567C210.568 63.2914 221.413 70.075 226.738 76.9265C218.81 73.7542 199.876 67.4305 187.735 68.366C175.37 69.3172 162.054 76.9265 156.347 80.7311C151.983 83.6421 145.884 92.1451 144.933 100.706C143.569 112.997 144.933 138.757 144.933 138.757Z" fill="#9DC468"/>
<path d="M48.4788 84.3633H61.8317V120.063C61.8317 124.187 60.8492 127.782 58.8841 130.845C56.9191 133.886 54.1806 136.249 50.6686 137.921C47.1566 139.583 43.075 140.409 38.4289 140.409C33.7254 140.409 29.6176 139.583 26.1056 137.921C22.5936 136.249 19.8603 133.886 17.9162 130.845C15.9721 127.782 15 124.187 15 120.063V84.3633H28.3738V118.898C28.3738 120.811 28.7919 122.509 29.6176 124.009C30.4642 125.504 31.6453 126.674 33.1609 127.521C34.6713 128.368 36.4273 128.791 38.4289 128.791C40.4253 128.791 42.1761 128.368 43.6708 127.521C45.1863 126.674 46.3622 125.504 47.2089 124.009C48.0555 122.509 48.4788 120.811 48.4788 118.898V84.3633ZM106.531 102.441C106.228 101.306 105.779 100.308 105.183 99.4408C104.587 98.5575 103.861 97.8102 102.993 97.1987C102.131 96.5873 101.138 96.1274 100.019 95.819C98.9061 95.495 97.678 95.333 96.3453 95.333C93.659 95.333 91.3386 95.981 89.3736 97.2823C87.4295 98.5784 85.9243 100.47 84.8582 102.953C83.7973 105.425 83.2642 108.425 83.2642 111.952C83.2642 115.501 83.7816 118.532 84.8059 121.035C85.8355 123.539 87.3197 125.446 89.2638 126.763C91.2132 128.08 93.5702 128.733 96.3453 128.733C98.7964 128.733 100.866 128.341 102.559 127.547C104.273 126.737 105.569 125.592 106.453 124.113C107.336 122.64 107.775 120.899 107.775 118.898L110.263 119.196H96.8052V109.438H120.668V116.765C120.668 121.72 119.612 125.964 117.506 129.491C115.416 133.024 112.531 135.736 108.857 137.628C105.198 139.52 100.991 140.461 96.2355 140.461C90.9571 140.461 86.3215 139.322 82.3183 137.033C78.3203 134.744 75.2055 131.482 72.9687 127.249C70.7371 122.995 69.6187 117.952 69.6187 112.114C69.6187 107.578 70.2929 103.549 71.6464 100.037C73 96.5036 74.8814 93.5143 77.2959 91.0632C79.7261 88.6121 82.5378 86.7568 85.7257 85.4973C88.9346 84.2378 92.3839 83.6055 96.0735 83.6055C99.2824 83.6055 102.261 84.0654 105.021 84.9852C107.796 85.905 110.247 87.2011 112.369 88.8734C114.517 90.551 116.252 92.5422 117.584 94.847C118.917 97.1517 119.748 99.6864 120.072 102.441H106.531Z" fill="#9DC468"/>
<path d="M206.111 112.036C206.111 118.124 204.945 123.288 202.599 127.521C200.257 131.754 197.085 134.968 193.087 137.168C189.105 139.363 184.636 140.461 179.682 140.461C174.712 140.461 170.233 139.353 166.256 137.142C162.273 134.921 159.112 131.707 156.77 127.495C154.445 123.256 153.284 118.109 153.284 112.036C153.284 105.947 154.445 100.784 156.77 96.5507C159.112 92.3175 162.273 89.1034 166.256 86.9032C170.233 84.703 174.712 83.6055 179.682 83.6055C184.636 83.6055 189.105 84.703 193.087 86.9032C197.085 89.1034 200.257 92.3175 202.599 96.5507C204.945 100.784 206.111 105.947 206.111 112.036ZM192.439 112.036C192.439 108.43 191.927 105.388 190.897 102.9C189.889 100.413 188.43 98.5314 186.523 97.251C184.631 95.9758 182.352 95.333 179.682 95.333C177.037 95.333 174.759 95.9758 172.846 97.251C170.938 98.5314 169.47 100.413 168.44 102.9C167.432 105.388 166.93 108.43 166.93 112.036C166.93 115.637 167.432 118.684 168.44 121.171C169.47 123.654 170.938 125.54 172.846 126.815C174.759 128.096 177.037 128.733 179.682 128.733C182.352 128.733 184.631 128.096 186.523 126.815C188.43 125.54 189.889 123.654 190.897 121.171C191.927 118.684 192.439 115.637 192.439 112.036ZM261.027 84.3633V139.708H249.676L227.653 107.766H227.297V139.708H213.924V84.3633H225.432L247.214 116.248H247.674V84.3633H261.027Z" fill="#9DC468"/>
<path d="M178.098 37.0404L147.922 41.1377L125.523 11.1343L97.3958 27.4295" stroke="#FFD230" stroke-width="1.90244"/>
<path d="M161.38 41.7229C161.291 42.5957 161.118 43.4475 160.862 44.2837C160.606 45.1199 160.272 45.9247 159.859 46.693C159.446 47.4612 158.96 48.1876 158.406 48.8618C157.847 49.536 157.23 50.1475 156.556 50.7014C155.876 51.2554 155.155 51.7362 154.382 52.1491C153.608 52.562 152.803 52.8912 151.967 53.1421C151.131 53.3929 150.279 53.5654 149.406 53.649C148.534 53.7326 147.666 53.7274 146.793 53.6438C145.926 53.5549 145.074 53.3825 144.238 53.1264C143.402 52.8703 142.597 52.5358 141.829 52.123C141.055 51.7101 140.334 51.2241 139.66 50.6701C138.985 50.1109 138.369 49.4942 137.815 48.82C137.261 48.1406 136.78 47.4194 136.372 46.6459C135.96 45.8725 135.63 45.0676 135.374 44.2314C135.123 43.3953 134.956 42.5382 134.872 41.6706C134.789 40.7979 134.789 39.9303 134.878 39.0575C134.967 38.19 135.139 37.3381 135.395 36.5019C135.646 35.6658 135.98 34.8609 136.399 34.0875C136.811 33.3192 137.297 32.598 137.851 31.9238C138.405 31.2496 139.022 30.633 139.701 30.079C140.381 29.525 141.102 29.0442 141.876 28.6366C142.649 28.2237 143.454 27.8945 144.29 27.6384C145.126 27.3875 145.978 27.2203 146.851 27.1367C147.718 27.053 148.591 27.053 149.459 27.1419C150.331 27.2307 151.183 27.398 152.02 27.654C152.856 27.9101 153.661 28.2446 154.429 28.6575C155.202 29.0756 155.923 29.5564 156.598 30.1156C157.272 30.6695 157.889 31.2862 158.443 31.9656C158.991 32.6398 159.477 33.3662 159.885 34.1397C160.298 34.908 160.627 35.7128 160.878 36.5542C161.134 37.3904 161.301 38.2423 161.385 39.115C161.468 39.9826 161.468 40.8553 161.38 41.7229Z" fill="#FFD230" stroke="#FFD230" stroke-width="1.90244"/>
<path d="M109.333 26.9277C109.259 27.675 109.108 28.4067 108.888 29.1227C108.674 29.8386 108.387 30.5285 108.031 31.187C107.676 31.8507 107.258 32.4674 106.782 33.0475C106.307 33.6224 105.779 34.1502 105.199 34.6258C104.619 35.1014 103.997 35.5143 103.333 35.8644C102.674 36.2146 101.985 36.502 101.263 36.7163C100.547 36.9305 99.8157 37.0769 99.0683 37.15C98.3262 37.218 97.5789 37.218 96.8315 37.1448C96.0842 37.0664 95.3577 36.9201 94.6365 36.7006C93.9205 36.4863 93.2307 36.1989 92.5722 35.8435C91.9137 35.4881 91.2918 35.07 90.7169 34.5945C90.1368 34.1189 89.609 33.591 89.1334 33.0109C88.663 32.4308 88.2501 31.8089 87.8948 31.1452C87.5446 30.4867 87.2624 29.7968 87.0429 29.0756C86.8286 28.3596 86.6823 27.628 86.6144 26.8806C86.5412 26.1385 86.5412 25.3912 86.6196 24.6438C86.6928 23.8965 86.8391 23.1648 87.0586 22.4488C87.2781 21.7329 87.5655 21.043 87.9209 20.3845C88.271 19.726 88.6891 19.1041 89.1647 18.5292C89.6403 17.9491 90.1734 17.4213 90.7535 16.9457C91.3336 16.4753 91.9503 16.0625 92.614 15.7071C93.2777 15.3569 93.9676 15.0747 94.6836 14.8552C95.3995 14.6409 96.1312 14.4946 96.8785 14.4267C97.6259 14.3535 98.3732 14.3535 99.1153 14.4319C99.8627 14.5051 100.594 14.6514 101.31 14.8709C102.026 15.0904 102.716 15.3778 103.375 15.7332C104.038 16.0834 104.655 16.5015 105.235 16.977C105.81 17.4526 106.338 17.9857 106.813 18.5658C107.289 19.1459 107.702 19.7626 108.052 20.4263C108.402 21.09 108.69 21.7799 108.904 22.4959C109.118 23.2119 109.265 23.9435 109.338 24.6909C109.411 25.4382 109.406 26.1855 109.333 26.9277Z" fill="#FFD230" stroke="#FFD230" stroke-width="1.90244"/>
<path d="M135.657 12.3676C135.594 12.9895 135.468 13.5958 135.286 14.1968C135.103 14.7926 134.867 15.3674 134.57 15.9162C134.272 16.4649 133.927 16.9823 133.53 17.4631C133.132 17.9492 132.693 18.3882 132.207 18.7801C131.727 19.1773 131.209 19.5222 130.655 19.8149C130.106 20.1076 129.532 20.3427 128.931 20.5257C128.335 20.7033 127.723 20.8236 127.101 20.8863C126.479 20.9438 125.858 20.9438 125.236 20.881C124.614 20.8183 124.007 20.6929 123.412 20.51C122.811 20.3323 122.241 20.0919 121.687 19.794C121.138 19.5013 120.621 19.1512 120.14 18.754C119.659 18.3568 119.22 17.9178 118.823 17.437C118.431 16.951 118.086 16.4336 117.794 15.8796C117.496 15.3309 117.26 14.756 117.083 14.1602C116.9 13.5592 116.78 12.9477 116.722 12.3258C116.659 11.7091 116.665 11.0872 116.727 10.4653C116.79 9.84338 116.91 9.23191 117.093 8.63613C117.276 8.04035 117.517 7.46547 117.809 6.91672C118.107 6.36275 118.452 5.84536 118.849 5.36455C119.246 4.88374 119.685 4.44474 120.171 4.04755C120.652 3.65559 121.17 3.31067 121.724 3.018C122.272 2.72533 122.847 2.48493 123.448 2.30724C124.044 2.12955 124.656 2.00935 125.277 1.94664C125.899 1.88915 126.521 1.88915 127.143 1.95186C127.765 2.01457 128.371 2.13478 128.967 2.31769C129.568 2.50061 130.143 2.74101 130.692 3.03368C131.24 3.33157 131.758 3.6765 132.239 4.07368C132.719 4.47087 133.158 4.9151 133.556 5.3959C133.953 5.88194 134.293 6.39933 134.59 6.94807C134.883 7.50205 135.118 8.07693 135.296 8.67271C135.479 9.27372 135.599 9.87996 135.657 10.5019C135.719 11.1238 135.714 11.7457 135.657 12.3676Z" fill="#FFD230" stroke="#FFD230" stroke-width="1.90244"/>
<path d="M184.762 37.3852C184.715 37.8189 184.631 38.2475 184.505 38.6656C184.375 39.0837 184.208 39.4861 184.004 39.8676C183.795 40.2543 183.554 40.6149 183.272 40.9546C182.995 41.2891 182.687 41.5974 182.347 41.8744C182.013 42.1514 181.647 42.3918 181.26 42.5956C180.879 42.8047 180.476 42.9667 180.053 43.0921C179.635 43.2176 179.211 43.3064 178.772 43.3482C178.339 43.39 177.905 43.3848 177.471 43.343C177.032 43.3012 176.609 43.2123 176.191 43.0869C175.773 42.9563 175.37 42.789 174.983 42.5852C174.602 42.3761 174.236 42.1357 173.902 41.8588C173.562 41.5765 173.259 41.2682 172.982 40.9337C172.705 40.594 172.464 40.2282 172.255 39.8467C172.052 39.4599 171.884 39.0575 171.759 38.6394C171.633 38.2213 171.55 37.7928 171.508 37.359C171.466 36.92 171.466 36.4863 171.508 36.0525C171.555 35.6187 171.639 35.1902 171.769 34.7721C171.895 34.354 172.062 33.9516 172.271 33.5648C172.475 33.1833 172.72 32.8227 172.997 32.483C173.274 32.1485 173.583 31.8402 173.922 31.5632C174.262 31.2862 174.623 31.0458 175.01 30.8368C175.396 30.633 175.799 30.4709 176.217 30.3403C176.635 30.2149 177.063 30.1312 177.497 30.0894C177.931 30.0476 178.365 30.0476 178.804 30.0947C179.238 30.1365 179.666 30.2201 180.084 30.3507C180.502 30.4762 180.899 30.6434 181.286 30.8524C181.673 31.0615 182.033 31.3019 182.368 31.5789C182.708 31.8559 183.016 32.1642 183.293 32.5039C183.57 32.8436 183.81 33.2042 184.014 33.591C184.218 33.9777 184.385 34.3801 184.511 34.7982C184.636 35.2163 184.72 35.6448 184.762 36.0786C184.803 36.5124 184.803 36.9514 184.762 37.3852Z" fill="#FFD230" stroke="#FFD230" stroke-width="1.90244"/>
<path d="M0.924834 180L3.82256 162.545H10.0442C11.3964 162.545 12.4788 162.778 13.2913 163.244C14.1095 163.705 14.672 164.347 14.9788 165.17C15.2913 165.989 15.3595 166.937 15.1834 168.017C15.0015 169.085 14.618 170.023 14.0328 170.83C13.4532 171.636 12.6777 172.267 11.7061 172.722C10.7402 173.17 9.58108 173.395 8.22881 173.395H3.51574L3.90779 171.128H8.38222C9.24018 171.128 9.95608 171.006 10.5299 170.761C11.1038 170.517 11.5527 170.162 11.8765 169.696C12.2061 169.23 12.422 168.67 12.5243 168.017C12.6322 167.352 12.601 166.781 12.4305 166.304C12.2601 165.821 11.9277 165.452 11.4334 165.196C10.939 164.935 10.2601 164.804 9.39643 164.804H6.08961L3.55836 180H0.924834ZM10.8453 172.125L13.8538 180H10.8538L7.92199 172.125H10.8453ZM21.3832 180.264C20.0992 180.264 19.0367 179.989 18.1957 179.438C17.3605 178.881 16.7753 178.099 16.4401 177.094C16.1048 176.082 16.0509 174.898 16.2781 173.54C16.4997 172.199 16.9457 171.017 17.6162 169.994C18.2867 168.972 19.1219 168.173 20.1219 167.599C21.1276 167.026 22.2384 166.739 23.4543 166.739C24.1929 166.739 24.8889 166.861 25.5423 167.105C26.2014 167.349 26.7611 167.733 27.2213 168.256C27.6815 168.778 27.9997 169.457 28.1759 170.293C28.3577 171.122 28.352 172.131 28.1588 173.318L28.0139 174.222H17.5992L17.8974 172.312H25.8065C25.9259 171.642 25.8946 171.048 25.7128 170.531C25.531 170.009 25.2185 169.597 24.7753 169.295C24.3378 168.994 23.7867 168.844 23.1219 168.844C22.4401 168.844 21.8037 169.023 21.2128 169.381C20.6219 169.739 20.1276 170.196 19.7298 170.753C19.3378 171.304 19.0906 171.872 18.9884 172.457L18.6901 174.205C18.5423 175.159 18.5679 175.926 18.7668 176.506C18.9713 177.085 19.3293 177.506 19.8406 177.767C20.352 178.028 20.9912 178.159 21.7582 178.159C22.2526 178.159 22.7099 178.091 23.1304 177.955C23.5565 177.812 23.9344 177.605 24.2639 177.332C24.5935 177.054 24.869 176.707 25.0906 176.293L27.4259 176.727C27.1134 177.437 26.6645 178.06 26.0793 178.594C25.494 179.122 24.8037 179.534 24.0082 179.83C23.2185 180.119 22.3435 180.264 21.3832 180.264ZM35.0682 180.264C33.7955 180.264 32.7529 179.977 31.9404 179.403C31.1279 178.824 30.5625 178.026 30.2444 177.009C29.9262 175.991 29.875 174.827 30.0909 173.514C30.3069 172.185 30.7472 171.011 31.412 169.994C32.0824 168.972 32.9205 168.173 33.9262 167.599C34.9375 167.026 36.0597 166.739 37.2926 166.739C38.287 166.739 39.1421 166.923 39.858 167.293C40.5739 167.656 41.1165 168.168 41.4858 168.827C41.8551 169.486 42.0142 170.256 41.9631 171.136H39.483C39.4432 170.523 39.2159 169.994 38.8012 169.551C38.3864 169.108 37.7756 168.886 36.9688 168.886C36.2586 168.886 35.6051 169.074 35.0086 169.449C34.412 169.818 33.9091 170.347 33.5 171.034C33.0909 171.716 32.8125 172.523 32.6648 173.455C32.5057 174.409 32.5142 175.233 32.6904 175.926C32.8665 176.619 33.1904 177.156 33.662 177.537C34.1336 177.918 34.7273 178.108 35.4432 178.108C35.9319 178.108 36.3864 178.02 36.8069 177.844C37.233 177.662 37.608 177.403 37.9319 177.068C38.2614 176.733 38.5171 176.33 38.6989 175.858H41.1875C40.9432 176.705 40.5341 177.46 39.9603 178.125C39.3921 178.79 38.6932 179.312 37.8637 179.693C37.0341 180.074 36.1023 180.264 35.0682 180.264ZM43.6949 184.909C43.3086 184.909 42.9648 184.878 42.6637 184.815C42.3626 184.759 42.1381 184.696 41.9904 184.628L42.962 182.54C43.4109 182.665 43.8114 182.713 44.1637 182.685C44.5217 182.656 44.8569 182.509 45.1694 182.241C45.4819 181.974 45.8001 181.554 46.1239 180.98L46.6012 180.119L44.0359 166.909H46.6609L48.2802 177.094H48.4165L53.4279 166.909H56.266L48.4165 181.73C48.0472 182.435 47.6268 183.02 47.1552 183.486C46.6893 183.957 46.1665 184.313 45.587 184.551C45.0131 184.79 44.3824 184.909 43.6949 184.909ZM61.1938 180.264C59.9211 180.264 58.8785 179.977 58.066 179.403C57.2535 178.824 56.6882 178.026 56.37 177.009C56.0518 175.991 56.0007 174.827 56.2166 173.514C56.4325 172.185 56.8728 171.011 57.5376 169.994C58.208 168.972 59.0461 168.173 60.0518 167.599C61.0632 167.026 62.1853 166.739 63.4183 166.739C64.4126 166.739 65.2677 166.923 65.9836 167.293C66.6995 167.656 67.2421 168.168 67.6115 168.827C67.9808 169.486 68.1399 170.256 68.0887 171.136H65.6086C65.5688 170.523 65.3416 169.994 64.9268 169.551C64.512 169.108 63.9012 168.886 63.0944 168.886C62.3842 168.886 61.7308 169.074 61.1342 169.449C60.5376 169.818 60.0347 170.347 59.6257 171.034C59.2166 171.716 58.9382 172.523 58.7904 173.455C58.6313 174.409 58.6399 175.233 58.816 175.926C58.9921 176.619 59.316 177.156 59.7876 177.537C60.2592 177.918 60.8529 178.108 61.5688 178.108C62.0575 178.108 62.512 178.02 62.9325 177.844C63.3586 177.662 63.7336 177.403 64.0575 177.068C64.387 176.733 64.6427 176.33 64.8245 175.858H67.3132C67.0688 176.705 66.6598 177.46 66.0859 178.125C65.5177 178.79 64.8188 179.312 63.9893 179.693C63.1598 180.074 62.2279 180.264 61.1938 180.264ZM74.4569 162.545L71.5592 180H69.0109L71.9086 162.545H74.4569ZM80.2754 180.264C78.9913 180.264 77.9288 179.989 77.0879 179.438C76.2527 178.881 75.6675 178.099 75.3323 177.094C74.997 176.082 74.943 174.898 75.1703 173.54C75.3919 172.199 75.8379 171.017 76.5084 169.994C77.1788 168.972 78.0141 168.173 79.0141 167.599C80.0198 167.026 81.1305 166.739 82.3465 166.739C83.0851 166.739 83.7811 166.861 84.4345 167.105C85.0936 167.349 85.6533 167.733 86.1135 168.256C86.5737 168.778 86.8919 169.457 87.068 170.293C87.2499 171.122 87.2442 172.131 87.051 173.318L86.9061 174.222H76.4913L76.7896 172.312H84.6987C84.818 171.642 84.7868 171.048 84.605 170.531C84.4232 170.009 84.1107 169.597 83.6675 169.295C83.23 168.994 82.6788 168.844 82.0141 168.844C81.3323 168.844 80.6959 169.023 80.105 169.381C79.5141 169.739 79.0198 170.196 78.622 170.753C78.23 171.304 77.9828 171.872 77.8805 172.457L77.5823 174.205C77.4345 175.159 77.4601 175.926 77.659 176.506C77.8635 177.085 78.2215 177.506 78.7328 177.767C79.2442 178.028 79.8834 178.159 80.6504 178.159C81.1448 178.159 81.6021 178.091 82.0226 177.955C82.4487 177.812 82.8266 177.605 83.1561 177.332C83.4857 177.054 83.7612 176.707 83.9828 176.293L86.318 176.727C86.0055 177.437 85.5567 178.06 84.9715 178.594C84.3862 179.122 83.6959 179.534 82.9004 179.83C82.1107 180.119 81.2357 180.264 80.2754 180.264ZM99.5573 180.247C98.3869 180.247 97.4153 180.034 96.6425 179.608C95.8698 179.182 95.3158 178.602 94.9806 177.869C94.6511 177.131 94.5658 176.295 94.7249 175.364C94.8329 174.648 95.08 174.014 95.4664 173.463C95.8584 172.912 96.3584 172.401 96.9664 171.929C97.58 171.457 98.2704 170.983 99.0374 170.506L102.174 168.52C102.697 168.207 103.12 167.878 103.444 167.531C103.768 167.179 103.975 166.744 104.066 166.227C104.128 165.818 104.015 165.426 103.725 165.051C103.435 164.676 102.992 164.489 102.395 164.489C101.992 164.489 101.617 164.588 101.27 164.787C100.929 164.986 100.645 165.241 100.418 165.554C100.197 165.861 100.057 166.185 100 166.526C99.938 166.923 99.9834 167.324 100.137 167.727C100.29 168.125 100.506 168.54 100.785 168.972C101.069 169.398 101.361 169.844 101.662 170.31L108.148 180H105.268L99.8726 172.116C99.4238 171.452 99.009 170.827 98.6283 170.241C98.2476 169.651 97.9579 169.054 97.759 168.452C97.5601 167.844 97.5175 167.188 97.6312 166.483C97.7619 165.682 98.0601 164.972 98.5261 164.352C98.992 163.727 99.5829 163.239 100.299 162.886C101.02 162.534 101.824 162.358 102.711 162.358C103.608 162.358 104.353 162.534 104.944 162.886C105.535 163.233 105.955 163.696 106.205 164.276C106.461 164.849 106.529 165.477 106.41 166.159C106.273 166.989 105.944 167.719 105.421 168.349C104.904 168.98 104.242 169.562 103.435 170.097L99.5147 172.679C98.7476 173.185 98.1908 173.682 97.8442 174.17C97.4976 174.653 97.3045 175.028 97.2647 175.295C97.1851 175.795 97.2391 176.259 97.4266 176.685C97.6141 177.111 97.9209 177.452 98.3471 177.707C98.7789 177.963 99.3101 178.091 99.9408 178.091C100.583 178.091 101.233 177.952 101.893 177.673C102.557 177.389 103.182 176.983 103.768 176.455C104.358 175.926 104.861 175.293 105.276 174.554C105.697 173.815 105.981 172.989 106.128 172.074H108.429C108.242 173.199 107.961 174.145 107.586 174.912C107.216 175.679 106.816 176.307 106.384 176.795C105.958 177.278 105.563 177.665 105.199 177.955C105.08 178.045 104.958 178.136 104.833 178.227C104.708 178.318 104.586 178.409 104.466 178.5C103.779 179.091 102.992 179.531 102.106 179.821C101.219 180.105 100.37 180.247 99.5573 180.247ZM116.061 180L118.959 162.545H129.902L129.527 164.812H121.217L120.331 170.131H128.069L127.694 172.389H119.956L119.069 177.733H127.481L127.106 180H116.061ZM133.773 180.29C132.943 180.29 132.219 180.136 131.599 179.83C130.98 179.517 130.523 179.065 130.227 178.474C129.932 177.884 129.855 177.159 129.997 176.301C130.122 175.562 130.366 174.955 130.73 174.477C131.099 174 131.548 173.622 132.077 173.344C132.605 173.06 133.179 172.847 133.798 172.705C134.418 172.562 135.043 172.457 135.673 172.389C136.469 172.298 137.114 172.222 137.608 172.159C138.108 172.097 138.483 172 138.733 171.869C138.983 171.733 139.134 171.511 139.185 171.205V171.145C139.304 170.406 139.196 169.832 138.861 169.423C138.531 169.009 137.957 168.801 137.139 168.801C136.287 168.801 135.571 168.989 134.991 169.364C134.418 169.739 133.994 170.159 133.722 170.625L131.438 170.08C131.847 169.284 132.366 168.642 132.997 168.153C133.634 167.659 134.33 167.301 135.085 167.08C135.841 166.852 136.614 166.739 137.403 166.739C137.926 166.739 138.469 166.801 139.031 166.926C139.594 167.045 140.105 167.267 140.565 167.591C141.031 167.915 141.378 168.378 141.605 168.98C141.832 169.577 141.866 170.352 141.707 171.307L140.267 180H137.778L138.085 178.21H137.983C137.767 178.54 137.466 178.864 137.08 179.182C136.699 179.5 136.233 179.764 135.682 179.974C135.131 180.185 134.494 180.29 133.773 180.29ZM134.642 178.244C135.352 178.244 135.98 178.105 136.526 177.827C137.077 177.548 137.523 177.185 137.864 176.736C138.205 176.281 138.418 175.795 138.503 175.278L138.784 173.591C138.676 173.682 138.486 173.764 138.213 173.838C137.946 173.912 137.645 173.977 137.31 174.034C136.974 174.091 136.645 174.139 136.321 174.179C136.003 174.219 135.739 174.256 135.528 174.29C135.028 174.352 134.56 174.457 134.122 174.605C133.69 174.753 133.33 174.966 133.04 175.244C132.75 175.517 132.568 175.881 132.494 176.335C132.392 176.966 132.543 177.443 132.946 177.767C133.355 178.085 133.92 178.244 134.642 178.244ZM143.341 180L145.523 166.909H147.986L147.637 168.989H147.773C148.125 168.284 148.64 167.73 149.316 167.327C149.992 166.918 150.713 166.713 151.48 166.713C151.645 166.713 151.833 166.719 152.043 166.73C152.253 166.736 152.424 166.75 152.554 166.773L152.145 169.21C152.049 169.182 151.872 169.151 151.617 169.116C151.361 169.077 151.097 169.057 150.824 169.057C150.228 169.057 149.674 169.185 149.162 169.44C148.651 169.69 148.222 170.04 147.875 170.489C147.529 170.932 147.304 171.437 147.202 172.006L145.89 180H143.341ZM156.114 172.227L154.836 180H152.288L154.469 166.909H156.915L156.557 169.04H156.719C157.134 168.341 157.699 167.784 158.415 167.369C159.137 166.949 159.989 166.739 160.972 166.739C161.859 166.739 162.603 166.926 163.205 167.301C163.813 167.67 164.242 168.222 164.492 168.955C164.748 169.687 164.788 170.594 164.611 171.673L163.214 180H160.665L162.003 171.98C162.157 171.031 162.032 170.29 161.628 169.756C161.231 169.216 160.597 168.946 159.728 168.946C159.137 168.946 158.589 169.074 158.083 169.33C157.583 169.585 157.16 169.96 156.813 170.455C156.472 170.943 156.239 171.534 156.114 172.227ZM172.539 180L175.437 162.545H181.658C183.01 162.545 184.093 162.778 184.905 163.244C185.724 163.705 186.286 164.347 186.593 165.17C186.905 165.989 186.974 166.937 186.797 168.017C186.616 169.085 186.232 170.023 185.647 170.83C185.067 171.636 184.292 172.267 183.32 172.722C182.354 173.17 181.195 173.395 179.843 173.395H175.13L175.522 171.128H179.996C180.854 171.128 181.57 171.006 182.144 170.761C182.718 170.517 183.167 170.162 183.491 169.696C183.82 169.23 184.036 168.67 184.138 168.017C184.246 167.352 184.215 166.781 184.045 166.304C183.874 165.821 183.542 165.452 183.047 165.196C182.553 164.935 181.874 164.804 181.01 164.804H177.704L175.172 180H172.539ZM182.459 172.125L185.468 180H182.468L179.536 172.125H182.459ZM192.997 180.264C191.713 180.264 190.651 179.989 189.81 179.438C188.975 178.881 188.389 178.099 188.054 177.094C187.719 176.082 187.665 174.898 187.892 173.54C188.114 172.199 188.56 171.017 189.23 169.994C189.901 168.972 190.736 168.173 191.736 167.599C192.742 167.026 193.852 166.739 195.068 166.739C195.807 166.739 196.503 166.861 197.156 167.105C197.815 167.349 198.375 167.733 198.835 168.256C199.296 168.778 199.614 169.457 199.79 170.293C199.972 171.122 199.966 172.131 199.773 173.318L199.628 174.222H189.213L189.512 172.312H197.421C197.54 171.642 197.509 171.048 197.327 170.531C197.145 170.009 196.833 169.597 196.389 169.295C195.952 168.994 195.401 168.844 194.736 168.844C194.054 168.844 193.418 169.023 192.827 169.381C192.236 169.739 191.742 170.196 191.344 170.753C190.952 171.304 190.705 171.872 190.602 172.457L190.304 174.205C190.156 175.159 190.182 175.926 190.381 176.506C190.585 177.085 190.943 177.506 191.455 177.767C191.966 178.028 192.605 178.159 193.372 178.159C193.867 178.159 194.324 178.091 194.744 177.955C195.171 177.812 195.548 177.605 195.878 177.332C196.208 177.054 196.483 176.707 196.705 176.293L199.04 176.727C198.727 177.437 198.279 178.06 197.693 178.594C197.108 179.122 196.418 179.534 195.622 179.83C194.833 180.119 193.958 180.264 192.997 180.264ZM204.017 180L202.346 166.909H204.98L205.943 176.523H206.071L210.247 166.909H212.88L213.835 176.48H213.963L218.113 166.909H220.747L214.721 180H212.122L211.031 170.548H210.835L206.608 180H204.017ZM224.439 180.29C223.609 180.29 222.885 180.136 222.266 179.83C221.646 179.517 221.189 179.065 220.894 178.474C220.598 177.884 220.521 177.159 220.663 176.301C220.788 175.562 221.033 174.955 221.396 174.477C221.766 174 222.215 173.622 222.743 173.344C223.271 173.06 223.845 172.847 224.465 172.705C225.084 172.562 225.709 172.457 226.34 172.389C227.135 172.298 227.78 172.222 228.274 172.159C228.774 172.097 229.149 172 229.399 171.869C229.649 171.733 229.8 171.511 229.851 171.205V171.145C229.97 170.406 229.862 169.832 229.527 169.423C229.198 169.009 228.624 168.801 227.805 168.801C226.953 168.801 226.237 168.989 225.658 169.364C225.084 169.739 224.661 170.159 224.388 170.625L222.104 170.08C222.513 169.284 223.033 168.642 223.663 168.153C224.3 167.659 224.996 167.301 225.751 167.08C226.507 166.852 227.28 166.739 228.07 166.739C228.592 166.739 229.135 166.801 229.698 166.926C230.26 167.045 230.771 167.267 231.232 167.591C231.698 167.915 232.044 168.378 232.271 168.98C232.499 169.577 232.533 170.352 232.374 171.307L230.933 180H228.445L228.751 178.21H228.649C228.433 178.54 228.132 178.864 227.746 179.182C227.365 179.5 226.899 179.764 226.348 179.974C225.797 180.185 225.161 180.29 224.439 180.29ZM225.308 178.244C226.019 178.244 226.646 178.105 227.192 177.827C227.743 177.548 228.189 177.185 228.53 176.736C228.871 176.281 229.084 175.795 229.169 175.278L229.45 173.591C229.342 173.682 229.152 173.764 228.879 173.838C228.612 173.912 228.311 173.977 227.976 174.034C227.641 174.091 227.311 174.139 226.987 174.179C226.669 174.219 226.405 174.256 226.195 174.29C225.695 174.352 225.226 174.457 224.788 174.605C224.357 174.753 223.996 174.966 223.706 175.244C223.416 175.517 223.234 175.881 223.161 176.335C223.058 176.966 223.209 177.443 223.612 177.767C224.021 178.085 224.587 178.244 225.308 178.244ZM234.007 180L236.189 166.909H238.652L238.303 168.989H238.439C238.792 168.284 239.306 167.73 239.982 167.327C240.658 166.918 241.38 166.713 242.147 166.713C242.311 166.713 242.499 166.719 242.709 166.73C242.919 166.736 243.09 166.75 243.221 166.773L242.811 169.21C242.715 169.182 242.539 169.151 242.283 169.116C242.027 169.077 241.763 169.057 241.49 169.057C240.894 169.057 240.34 169.185 239.828 169.44C239.317 169.69 238.888 170.04 238.542 170.489C238.195 170.932 237.971 171.437 237.868 172.006L236.556 180H234.007ZM247.36 180.256C246.298 180.256 245.397 179.986 244.658 179.446C243.925 178.901 243.406 178.125 243.099 177.119C242.798 176.108 242.763 174.895 242.996 173.48C243.235 172.065 243.675 170.855 244.317 169.849C244.959 168.844 245.738 168.074 246.653 167.54C247.567 167.006 248.553 166.739 249.61 166.739C250.423 166.739 251.053 166.875 251.502 167.148C251.957 167.415 252.292 167.727 252.508 168.085C252.724 168.443 252.886 168.759 252.994 169.031H253.138L254.221 162.545H256.769L253.871 180H251.383L251.732 177.963H251.519C251.32 178.241 251.045 178.56 250.692 178.918C250.346 179.276 249.903 179.588 249.363 179.855C248.823 180.122 248.156 180.256 247.36 180.256ZM248.221 178.082C248.954 178.082 249.61 177.889 250.19 177.503C250.775 177.111 251.261 176.568 251.647 175.875C252.039 175.182 252.312 174.375 252.465 173.455C252.619 172.545 252.616 171.75 252.457 171.068C252.298 170.386 251.991 169.855 251.536 169.474C251.082 169.094 250.482 168.903 249.738 168.903C248.971 168.903 248.303 169.102 247.735 169.5C247.167 169.898 246.701 170.44 246.337 171.128C245.979 171.815 245.729 172.591 245.587 173.455C245.44 174.33 245.434 175.116 245.57 175.815C245.707 176.514 245.994 177.068 246.431 177.477C246.869 177.881 247.465 178.082 248.221 178.082ZM268.643 170.105L266.265 170.514C266.214 170.213 266.109 169.929 265.95 169.662C265.796 169.395 265.561 169.179 265.242 169.014C264.924 168.844 264.501 168.759 263.973 168.759C263.24 168.759 262.598 168.926 262.046 169.261C261.501 169.597 261.188 170.023 261.109 170.54C261.035 170.96 261.135 171.301 261.407 171.562C261.68 171.818 262.16 172.031 262.848 172.202L264.859 172.679C266.018 172.957 266.848 173.392 267.348 173.983C267.853 174.568 268.029 175.33 267.876 176.267C267.745 177.045 267.404 177.736 266.853 178.338C266.308 178.94 265.609 179.412 264.757 179.753C263.904 180.094 262.956 180.264 261.91 180.264C260.421 180.264 259.262 179.949 258.433 179.318C257.603 178.688 257.177 177.795 257.154 176.642L259.677 176.267C259.723 176.909 259.953 177.395 260.367 177.724C260.788 178.048 261.37 178.21 262.115 178.21C262.967 178.216 263.68 178.037 264.254 177.673C264.828 177.31 265.154 176.869 265.234 176.352C265.302 175.949 265.211 175.614 264.961 175.347C264.717 175.08 264.285 174.875 263.666 174.733L261.552 174.247C260.37 173.969 259.535 173.52 259.046 172.901C258.558 172.281 258.393 171.503 258.552 170.565C258.677 169.798 259.001 169.131 259.524 168.562C260.052 167.989 260.72 167.543 261.527 167.224C262.333 166.901 263.225 166.739 264.203 166.739C265.629 166.739 266.7 167.045 267.416 167.659C268.132 168.267 268.541 169.082 268.643 170.105ZM271.619 180.162C271.142 180.162 270.744 179.997 270.426 179.668C270.114 179.338 269.96 178.935 269.966 178.457C269.971 177.986 270.148 177.591 270.494 177.273C270.846 176.949 271.256 176.787 271.721 176.787C272.187 176.787 272.585 176.952 272.915 177.281C273.244 177.611 273.398 178.003 273.375 178.457C273.358 178.776 273.267 179.065 273.102 179.327C272.943 179.582 272.733 179.787 272.471 179.94C272.21 180.088 271.926 180.162 271.619 180.162Z" fill="#606060"/>
</svg>
